<mxfile host="app.diagrams.net" modified="2024-01-09T16:06:25.528Z" agent="Mozilla/5.0 (Windows NT 10.0; Win64; x64) AppleWebKit/537.36 (KHTML, like Gecko) Chrome/120.0.0.0 Safari/537.36" version="22.1.17" etag="FoCLmf-0LotQisaioi0-" type="github">
  <diagram name="Page-1" id="etcX4rhnOnUhyn0WcxDc">
    <mxGraphModel>
      <root>
        <mxCell id="0" />
        <mxCell id="1" parent="0" />
      </root>
    </mxGraphModel>
  </diagram>
</mxfile>
